<svg width="24" height="24" viewBox="0 0 24 24" fill="none" xmlns="http://www.w3.org/2000/svg">
<path d="M12 3C10.1794 3.00002 8.40167 3.55216 6.90142 4.58354C5.40117 5.61492 4.24899 7.07703 3.59698 8.77684C2.94497 10.4767 2.82379 12.3342 3.24946 14.1044C3.67512 15.8745 4.62759 17.4739 5.98114 18.6914V18.6913C6.54583 17.5804 7.40707 16.6474 8.46942 15.9959C9.53178 15.3444 10.7538 14.9997 12 15C11.2583 15 10.5333 14.7801 9.91661 14.368C9.29993 13.956 8.81928 13.3703 8.53545 12.6851C8.25162 11.9998 8.17736 11.2458 8.32206 10.5184C8.46675 9.79098 8.8239 9.1228 9.34835 8.59835C9.8728 8.0739 10.541 7.71675 11.2684 7.57205C11.9958 7.42736 12.7498 7.50162 13.4351 7.78545C14.1203 8.06928 14.706 8.54993 15.118 9.16661C15.5301 9.7833 15.75 10.5083 15.75 11.25C15.75 12.2446 15.3549 13.1984 14.6516 13.9016C13.9484 14.6049 12.9946 15 12 15C13.2462 14.9997 14.4682 15.3444 15.5306 15.9959C16.5929 16.6474 17.4542 17.5804 18.0189 18.6913C19.3724 17.4738 20.3249 15.8744 20.7505 14.1043C21.1762 12.3342 21.055 10.4766 20.403 8.77679C19.751 7.07698 18.5988 5.61487 17.0986 4.58351C15.5983 3.55214 13.8206 3 12 3Z" fill="#E2E6E9"/>
<path fill-rule="evenodd" clip-rule="evenodd" d="M12 3.75C7.44365 3.75 3.75 7.44365 3.75 12C3.75 16.5563 7.44365 20.25 12 20.25C16.5563 20.25 20.25 16.5563 20.25 12C20.25 7.44365 16.5563 3.75 12 3.75ZM2.25 12C2.25 6.61522 6.61522 2.25 12 2.25C17.3848 2.25 21.75 6.61522 21.75 12C21.75 17.3848 17.3848 21.75 12 21.75C6.61522 21.75 2.25 17.3848 2.25 12Z" fill="#E2E6E9"/>
<path fill-rule="evenodd" clip-rule="evenodd" d="M12 8.25C10.3431 8.25 9 9.59315 9 11.25C9 12.9069 10.3431 14.25 12 14.25C13.6569 14.25 15 12.9069 15 11.25C15 9.59315 13.6569 8.25 12 8.25ZM7.5 11.25C7.5 8.76472 9.51472 6.75 12 6.75C14.4853 6.75 16.5 8.76472 16.5 11.25C16.5 13.7353 14.4853 15.75 12 15.75C9.51472 15.75 7.5 13.7353 7.5 11.25Z" fill="#E2E6E9"/>
<path fill-rule="evenodd" clip-rule="evenodd" d="M11.9999 15.75C10.8922 15.75 9.80605 16.0565 8.86175 16.6357C7.91745 17.2148 7.15182 18.044 6.64962 19.0313C6.46183 19.4005 6.01031 19.5476 5.6411 19.3598C5.2719 19.172 5.12483 18.7205 5.31262 18.3513C5.94031 17.1172 6.89727 16.0809 8.07754 15.357C9.25782 14.6331 10.6154 14.25 11.9999 14.25C13.3845 14.25 14.7421 14.6331 15.9223 15.357C17.1026 16.0808 18.0596 17.1172 18.6873 18.3513C18.8751 18.7205 18.728 19.172 18.3588 19.3598C17.9896 19.5476 17.5381 19.4005 17.3503 19.0313C16.8481 18.0439 16.0824 17.2148 15.1381 16.6357C14.1938 16.0565 13.1077 15.75 11.9999 15.75Z" fill="#E2E6E9"/>
</svg>
